<?xml version="1.0" encoding="utf-8"?>
<!-- Generator: Adobe Illustrator 24.0.1, SVG Export Plug-In . SVG Version: 6.00 Build 0)  -->
<svg version="1.1" id="Layer_1" xmlns="http://www.w3.org/2000/svg" xmlns:xlink="http://www.w3.org/1999/xlink" x="0px" y="0px"
	 viewBox="0 0 124.72 63.64" style="enable-background:new 0 0 124.72 63.64;" xml:space="preserve">
<style type="text/css">
	.st0{fill:#FFFFFF;}
</style>
<g>
	<g>
		<path class="st0" d="M12.24,53.61c-0.36,0.31-0.77,0.59-1.24,0.83c-0.47,0.24-0.95,0.44-1.44,0.61c-0.49,0.17-0.98,0.3-1.46,0.4
			c-0.48,0.1-0.94,0.14-1.37,0.14c-1.18,0-2.14-0.19-2.9-0.56c-0.76-0.37-1.35-0.85-1.78-1.42c-0.43-0.58-0.73-1.2-0.9-1.87
			S0.9,50.43,0.9,49.83c0-2.04,0.28-3.87,0.83-5.49c0.55-1.62,1.29-2.99,2.21-4.12c0.92-1.13,1.99-1.99,3.19-2.59
			c1.2-0.6,2.44-0.9,3.71-0.9c0.91,0,1.66,0.08,2.25,0.25c0.59,0.17,1.12,0.36,1.6,0.58l-1.01,2.23c-0.41-0.24-0.91-0.43-1.51-0.56
			c-0.6-0.13-1.25-0.2-1.94-0.2c-0.82,0-1.61,0.28-2.39,0.83c-0.78,0.55-1.47,1.28-2.07,2.18c-0.6,0.9-1.08,1.93-1.44,3.1
			c-0.36,1.16-0.54,2.36-0.54,3.58c0,1.56,0.32,2.71,0.97,3.46s1.52,1.12,2.63,1.12c0.72,0,1.48-0.16,2.27-0.49s1.43-0.65,1.91-0.99
			L12.24,53.61z"/>
		<path class="st0" d="M25.35,53.39c-0.84,0.72-1.83,1.27-2.97,1.64c-1.14,0.37-2.29,0.56-3.44,0.56c-1.92,0-3.37-0.55-4.34-1.66
			c-0.97-1.1-1.46-2.64-1.46-4.61s0.28-3.73,0.83-5.29c0.55-1.56,1.28-2.88,2.18-3.96c0.9-1.08,1.92-1.91,3.06-2.48
			c1.14-0.58,2.31-0.87,3.51-0.87c0.86,0,1.61,0.12,2.25,0.36c0.64,0.24,1.16,0.56,1.57,0.95c0.41,0.4,0.71,0.85,0.9,1.37
			c0.19,0.52,0.29,1.06,0.29,1.64c0,1.71-0.83,3.04-2.48,4.01c-1.66,0.97-4.07,1.46-7.24,1.46c-0.29,0-0.59-0.01-0.9-0.02
			c-0.31-0.01-0.64-0.03-0.97-0.05c-0.1,0.46-0.17,0.89-0.22,1.3c-0.05,0.41-0.07,0.77-0.07,1.08c0,1.32,0.3,2.39,0.9,3.22
			c0.6,0.83,1.54,1.24,2.81,1.24c1.06,0,2.02-0.17,2.9-0.52c0.88-0.35,1.55-0.71,2.03-1.1L25.35,53.39z M22.29,39.03
			c-1.32,0-2.47,0.45-3.44,1.35c-0.97,0.9-1.71,2.25-2.21,4.05c0.91,0,1.86-0.02,2.84-0.07c0.98-0.05,1.88-0.17,2.68-0.38
			c0.8-0.2,1.47-0.53,2-0.97c0.53-0.44,0.79-1.06,0.79-1.85c0-0.24-0.04-0.49-0.13-0.74c-0.08-0.25-0.22-0.48-0.41-0.68
			c-0.19-0.2-0.46-0.37-0.81-0.5C23.25,39.09,22.82,39.03,22.29,39.03z"/>
		<path class="st0" d="M30.92,37.15h1.87l-0.18,3.1h0.14c0.34-0.43,0.71-0.86,1.13-1.28c0.42-0.42,0.88-0.8,1.39-1.13
			s1.06-0.61,1.66-0.81c0.6-0.2,1.25-0.31,1.94-0.31c0.58,0,1.12,0.09,1.62,0.27c0.5,0.18,0.95,0.48,1.33,0.9
			c0.38,0.42,0.69,0.98,0.92,1.67s0.34,1.55,0.34,2.56c0,2.11-0.29,4-0.86,5.67c-0.58,1.67-1.33,3.08-2.27,4.23
			c-0.94,1.15-1.99,2.03-3.15,2.65c-1.16,0.61-2.32,0.92-3.47,0.92c-0.84,0-1.58-0.08-2.21-0.23c-0.64-0.16-1.06-0.32-1.28-0.49
			l-1.58,7.49h-2.7L30.92,37.15z M37.87,39.03c-0.65,0-1.27,0.17-1.85,0.5c-0.59,0.34-1.13,0.75-1.62,1.24
			c-0.49,0.49-0.93,1.02-1.31,1.58c-0.38,0.56-0.7,1.09-0.94,1.57l-1.76,8.53c0.41,0.31,0.83,0.53,1.26,0.65
			c0.43,0.12,0.9,0.18,1.4,0.18c0.94,0,1.83-0.26,2.68-0.77c0.85-0.52,1.61-1.25,2.29-2.21c0.67-0.96,1.21-2.11,1.6-3.46
			s0.59-2.84,0.59-4.5c0-0.96-0.2-1.75-0.59-2.38C39.22,39.34,38.64,39.03,37.87,39.03z"/>
	</g>
	<g>
		<path class="st0" d="M79.21,2.3c0.86,0.67,1.28,1.66,1.28,2.97c0,1.31-0.73,3.37-2.18,6.17c-1.45,2.8-3.2,5.66-5.24,8.58
			s-4.35,6.02-6.93,9.3c-4.08,5.2-7.99,9.88-11.74,14.03c-0.02,0.28-0.12,0.8-0.3,1.56c-0.18,0.76-0.26,1.53-0.26,2.3
			s0.36,1.47,1.07,2.09c0.71,0.62,1.6,0.93,2.65,0.93s2.19-0.37,3.39-1.13c1.21-0.75,2.26-1.58,3.15-2.5
			c2.34-2.41,3.8-3.62,4.36-3.62s0.84,0.86,0.84,2.57v0.7c0,0.91-0.16,1.58-0.49,2c-1.97,2.41-4.18,4.21-6.64,5.4s-4.79,1.78-7,1.78
			c-2.2,0-3.88-0.67-5.03-2.02c-1.15-1.35-1.72-3.19-1.72-5.54c0-4.57,1.22-9.94,3.67-16.12c2.45-6.17,5.21-11.43,8.28-15.77
			C67.3,6.2,72.58,1.3,76.24,1.3C77.36,1.3,78.35,1.63,79.21,2.3z M74.66,7.14c0-0.35-0.12-0.53-0.35-0.53
			c-0.82,0-2.98,2.34-6.47,7.03c-3.49,4.69-6.02,8.43-7.58,11.21c-1.56,2.79-3.03,6.29-4.41,10.51c2.77-3.28,6.59-8.4,11.48-15.35
			C72.21,13.07,74.66,8.78,74.66,7.14z"/>
		<path class="st0" d="M92.12,27.35c1.78,0,2.67,0.61,2.67,1.83c0,0.66-0.15,1.14-0.46,1.44c-0.3,0.3-0.96,1.32-1.95,3.04
			c-1,1.72-2.1,3.93-3.3,6.61c-1.21,2.68-1.99,4.97-2.34,6.87c-0.07,0.23-0.11,0.56-0.11,0.98c0,1.29,0.35,1.93,1.05,1.93
			s1.53-0.33,2.5-1c0.96-0.67,1.82-1.38,2.57-2.14c0.75-0.76,1.48-1.54,2.2-2.34c0.71-0.8,1.14-1.25,1.28-1.37
			c0.14-0.12,0.35-0.18,0.63-0.18c0.44,0,0.71,0.34,0.81,1.02c0.09,0.68,0.14,1.38,0.14,2.11c0,0.73-0.07,1.23-0.21,1.51
			c-0.68,1.34-2.17,2.94-4.48,4.82c-2.31,1.88-4.41,2.81-6.29,2.81c-1.89,0-3.28-0.58-4.17-1.72c-0.89-1.15-1.34-2.42-1.34-3.81
			c0-1.39,0.23-2.62,0.7-3.67c-1.95,2.53-4.18,4.68-6.7,6.43c-2.52,1.76-4.58,2.64-6.17,2.64c-1.59,0-2.9-0.48-3.9-1.44
			c-1.29-1.2-1.93-2.85-1.93-4.97c0-2.12,0.47-4.25,1.42-6.4s2.2-4.1,3.74-5.87c1.55-1.77,3.25-3.38,5.1-4.83
			c3.89-3.05,7.48-4.57,10.76-4.57c1.27,0,2.3,0.21,3.09,0.63c0.8,0.42,1.3,0.95,1.51,1.58c0.56-0.84,1.04-1.38,1.42-1.6
			C90.77,27.46,91.35,27.35,92.12,27.35z M87.45,31.25c-4.01,0-8.16,2.23-12.45,6.68c-1.52,1.59-2.92,3.5-4.2,5.73
			c-1.28,2.23-1.92,3.75-1.92,4.57c0,0.82,0.23,1.23,0.7,1.23c0.66,0,2.48-1.29,5.48-3.88c3-2.59,4.99-4.49,5.98-5.71
			C82.13,38.51,84.26,35.64,87.45,31.25z"/>
		<path class="st0" d="M123.19,3.9c-4.95,7.43-9.76,15.2-14.45,23.31c1.08-0.56,2.29-0.97,3.64-1.21c1.35-0.25,2.3-0.37,2.85-0.37
			c0.55,0,1.02,0.02,1.42,0.05c0.4,0.04,0.91,0.16,1.53,0.39c0.62,0.22,1.15,0.53,1.6,0.93c1.08,0.96,1.62,2.32,1.62,4.08
			s-0.47,3.69-1.42,5.78c-0.95,2.1-2.24,4.2-3.87,6.31c-1.63,2.11-3.41,4.07-5.34,5.89c-1.93,1.82-4.01,3.3-6.24,4.45
			c-2.23,1.15-4.3,1.72-6.22,1.72c-0.89,0-1.92-0.58-3.08-1.72s-1.74-2.66-1.74-4.54c0-1.88,0.81-4.78,2.43-8.72
			s3.58-7.94,5.89-12.01c2.31-4.07,4.66-8.03,7.07-11.9c2.4-3.87,4.45-7.03,6.13-9.49s2.72-3.88,3.09-4.25
			c0.37-0.37,1.06-0.69,2.06-0.95c1-0.26,1.86-0.38,2.58-0.37c0.73,0.01,1.09,0.35,1.09,1C123.82,2.71,123.61,3.25,123.19,3.9z
			 M113.7,37.65c0.96-1.69,1.44-3.22,1.44-4.61c0-1.38-0.44-2.07-1.32-2.07s-2.23,0.38-4.04,1.14c-1.82,0.76-2.85,1.14-3.11,1.14
			c-0.26,0-0.6-0.21-1.02-0.63c-4.57,8.23-6.86,13.48-6.86,15.75c0,1.05,0.34,1.58,1.02,1.58c1.62,0,3.95-1.35,7-4.06
			C109.85,43.19,112.15,40.44,113.7,37.65z"/>
	</g>
</g>
</svg>
